<?xml version="1.0" encoding="UTF-8" standalone="no"?>
<!-- Created with Inkscape (http://www.inkscape.org/) -->

<svg
   width="1000mm"
   height="1000mm"
   viewBox="0 0 1000 1000"
   version="1.1"
   id="svg1"
   xmlns="http://www.w3.org/2000/svg"
   xmlns:svg="http://www.w3.org/2000/svg">
  <defs
     id="defs1" />
  <g
     id="layer1">
    <circle
       style="fill:#ff9000;stroke:none;stroke-width:0.63749;stroke-miterlimit:20"
       id="path1"
       cx="500"
       cy="500"
       r="500" />
    <path
       style="fill:#ffffff;stroke:none;stroke-width:0.264999;stroke-miterlimit:20;stroke-opacity:1"
       d="M 500,250.1719 671.01018,30.153729 660.5852,308.62201 933.01263,249.99992 749.82807,500 933.01263,750.00008 660.5852,691.37799 671.01018,969.84626 500,749.82807 328.98982,969.84626 339.4148,691.37799 66.987342,750.00008 250.1719,500 66.987342,249.99992 339.4148,308.62201 328.98982,30.153729 Z"
       id="path14" />
    <path
       style="fill:#ff900f;fill-opacity:1;stroke:none;stroke-width:0.211999;stroke-miterlimit:20;stroke-opacity:1"
       d="M 500,300.13752 636.80814,124.12298 628.46816,346.89761 846.4101,299.99993 699.86245,500 846.4101,700.00006 628.46816,653.10239 636.80814,875.87701 500,699.86245 363.19185,875.87701 371.53184,653.10239 153.58987,700.00006 300.13752,500 153.58987,299.99993 371.53184,346.89761 363.19185,124.12298 Z"
       id="path30" />
    <path
       style="fill:#ffffff;stroke:none;stroke-width:0.158999;stroke-miterlimit:20;stroke-opacity:1"
       d="M 499.99999,350.10314 602.6061,218.09224 596.35111,385.1732 759.80757,349.99995 649.89684,500 759.80757,650.00005 596.35111,614.82679 602.6061,781.90775 499.99999,649.89684 397.39389,781.90775 403.64887,614.82679 240.1924,650.00005 350.10313,500 240.1924,349.99995 403.64887,385.1732 397.39389,218.09224 Z"
       id="path31" />
    <path
       style="fill:#ff9000;fill-opacity:1;stroke:none;stroke-width:0.264999;stroke-miterlimit:20;stroke-opacity:1"
       d="m 345.73826,372.71176 -129.59742,-36.59793 92.1687,106.84859 z"
       id="path34" />
    <path
       style="fill:#ff9000;fill-opacity:1;stroke:none;stroke-width:0.264999;stroke-miterlimit:20;stroke-opacity:1"
       d="m 308.30954,557.03758 37.42872,70.25065 -137.94919,41.41981 z"
       id="path35" />
    <path
       style="fill:#ff9000;fill-opacity:1;stroke:none;stroke-width:0.264999;stroke-miterlimit:20;stroke-opacity:1"
       d="m 401.43271,674.02429 62.21489,22.64277 -80.18706,123.52245 z"
       id="path36" />
    <path
       style="fill:#ff9000;fill-opacity:1;stroke:none;stroke-width:0.264999;stroke-miterlimit:20;stroke-opacity:1"
       d="m 536.35237,696.66706 62.21489,-22.64277 15.88405,140.42813 z"
       id="path37" />
    <path
       style="fill:#ff9000;fill-opacity:1;stroke:none;stroke-width:0.264999;stroke-miterlimit:20;stroke-opacity:1"
       d="M 654.26171,627.28823 691.69046,557.0376 801.32644,673.97089 Z"
       id="path38" />
    <path
       style="fill:#ff9000;fill-opacity:1;stroke:none;stroke-width:0.264999;stroke-miterlimit:20;stroke-opacity:1"
       d="M 654.26171,372.71174 788.37167,333.50853 691.69046,442.96239 Z"
       id="path39" />
    <circle
       style="fill:#ffffff;fill-opacity:1;stroke:none;stroke-width:0.329004;stroke-miterlimit:20;stroke-opacity:1"
       id="circle32"
       cx="500"
       cy="500"
       r="200" />
    <path
       style="fill:#ff9000;fill-opacity:1;stroke:none;stroke-width:0.264999;stroke-miterlimit:20;stroke-opacity:1"
       d="m 499.9202,350.00049 36.43215,-46.66756 h -72.70472 z"
       id="path33" />
    <path
       style="fill:#ff9000;fill-opacity:1;stroke:none;stroke-width:0.264999;stroke-miterlimit:20;stroke-opacity:1"
       d="m 500.10636,300.00067 35.15432,-4.91506 1.09167,8.24732 -67.04767,3.98061 -5.65047,-3.98328 29.79214,-7.77695 6.44726,4.44733 0.16809,0.39359 z"
       id="path41" />
    <path
       style="fill:#ff9000;fill-opacity:1;stroke:none;stroke-width:0.264999;stroke-miterlimit:20;stroke-opacity:1"
       d="m 500,300.13751 0.10636,-0.13687 0.15044,0.62804 -0.48784,-0.22325 0.12465,-0.40479 z"
       id="path40" />
    <circle
       style="fill:#ff9000;fill-opacity:1;stroke:none;stroke-width:0.246752;stroke-miterlimit:20;stroke-opacity:1"
       id="path32"
       cx="500"
       cy="500"
       r="150" />
    <path
       style="fill:#ff9000;fill-opacity:1;stroke:none;stroke-width:0.264999;stroke-miterlimit:20;stroke-opacity:1"
       d="m 500,300.13751 22.77163,-29.2975 24.21009,18.81741 -47.06152,60.34307 -51.22325,-65.90282 28.60646,-13.16114 z"
       id="path42" />
    <text
       xml:space="preserve"
       style="font-style:normal;font-variant:normal;font-weight:normal;font-stretch:normal;font-size:52.9167px;font-family:Arial;-inkscape-font-specification:'Arial, Normal';font-variant-ligatures:normal;font-variant-caps:normal;font-variant-numeric:normal;font-variant-east-asian:normal;writing-mode:lr-tb;direction:ltr;fill:#ff9000;fill-opacity:1;stroke:none;stroke-width:0.264999;stroke-miterlimit:20;stroke-opacity:1"
       x="840.5965"
       y="140.94366"
       id="text43"><tspan
         id="tspan43"
         style="font-style:normal;font-variant:normal;font-weight:normal;font-stretch:normal;font-size:52.9167px;font-family:Arial;-inkscape-font-specification:'Arial, Normal';font-variant-ligatures:normal;font-variant-caps:normal;font-variant-numeric:normal;font-variant-east-asian:normal;stroke-width:0.265"
         x="840.5965"
         y="140.94366">™</tspan></text>
  </g>
</svg>
