<?xml version="1.0" encoding="UTF-8" standalone="no"?>
<!-- Created with Inkscape (http://www.inkscape.org/) -->

<svg
   width="1000"
   height="1000"
   viewBox="0 0 264.58333 264.58333"
   version="1.1"
   id="svg1"
   xmlns:xlink="http://www.w3.org/1999/xlink"
   xmlns="http://www.w3.org/2000/svg"
   xmlns:svg="http://www.w3.org/2000/svg">
  <defs
     id="defs1">
    <radialGradient
       xlink:href="#linearGradient96"
       id="radialGradient97"
       cx="55.5625"
       cy="55.096191"
       fx="55.5625"
       fy="55.096191"
       r="6.3499999"
       gradientUnits="userSpaceOnUse" />
    <linearGradient
       id="linearGradient96">
      <stop
         style="stop-color:#ffffff;stop-opacity:1;"
         offset="0"
         id="stop96" />
      <stop
         style="stop-color:#ffffff;stop-opacity:0;"
         offset="1"
         id="stop97" />
    </linearGradient>
  </defs>
  <g
     id="layer1">
    <g
       id="g3"
       transform="matrix(20.833333,0,0,20.833333,-1025.2604,-1015.5457)">
      <circle
         style="fill:#ff9000;stroke:none;stroke-width:0.00809612;stroke-miterlimit:20"
         id="path1-0"
         cx="55.5625"
         cy="55.096191"
         r="6.3499999" />
      <circle
         style="fill:url(#radialGradient97);stroke:none;stroke-width:0.00809612;stroke-miterlimit:20"
         id="circle95"
         cx="55.5625"
         cy="55.096191"
         r="6.3499999" />
      <g
         id="g95">
        <path
           style="fill:#ffffff;stroke:none;stroke-width:0.00336549;stroke-miterlimit:20;stroke-opacity:1"
           d="m 55.5625,51.923375 2.171829,-2.794231 -0.132397,3.536548 3.459828,-0.744501 -2.326444,3.175001 2.326444,3.175001 -3.459828,-0.744501 0.132397,3.536548 -2.171829,-2.794232 -2.171829,2.794232 0.132397,-3.536548 -3.459829,0.744501 2.326444,-3.175001 -2.326444,-3.175001 3.459829,0.744501 -0.132397,-3.536548 z"
           id="path14-1" />
        <path
           style="fill:#ff900f;fill-opacity:1;stroke:none;stroke-width:0.00269239;stroke-miterlimit:20;stroke-opacity:1"
           d="m 55.5625,52.557939 1.737463,-2.235385 -0.105917,2.829238 2.767862,-0.595601 -1.861155,2.540001 1.861155,2.540001 -2.767862,-0.595601 0.105917,2.829238 -1.737463,-2.235385 -1.737464,2.235385 0.105918,-2.829238 -2.767863,0.595601 1.861156,-2.540001 -1.861156,-2.540001 2.767863,0.595601 -0.105918,-2.829238 z"
           id="path30" />
        <path
           style="fill:#ffffff;stroke:none;stroke-width:0.00201929;stroke-miterlimit:20;stroke-opacity:1"
           d="m 55.5625,53.192502 1.303097,-1.676539 -0.07944,2.121929 2.075897,-0.446701 -1.395866,1.905001 1.395866,1.905001 -2.075897,-0.446701 0.07944,2.121928 -1.303097,-1.676538 -1.303098,1.676538 0.07944,-2.121928 -2.075898,0.446701 1.395867,-1.905001 -1.395867,-1.905001 2.075898,0.446701 -0.07944,-2.121929 z"
           id="path31-4" />
        <path
           style="fill:#ff9000;fill-opacity:1;stroke:none;stroke-width:0.00336549;stroke-miterlimit:20;stroke-opacity:1"
           d="m 53.603376,53.479631 -1.645887,-0.464793 1.170542,1.356977 z"
           id="path34-6" />
        <path
           style="fill:#ff9000;fill-opacity:1;stroke:none;stroke-width:0.00336549;stroke-miterlimit:20;stroke-opacity:1"
           d="m 53.128031,55.820569 0.475345,0.892184 -1.751955,0.526031 z"
           id="path35-0" />
        <path
           style="fill:#ff9000;fill-opacity:1;stroke:none;stroke-width:0.00336549;stroke-miterlimit:20;stroke-opacity:1"
           d="m 54.310695,57.3063 0.79013,0.287564 -1.018376,1.568735 z"
           id="path36-7" />
        <path
           style="fill:#ff9000;fill-opacity:1;stroke:none;stroke-width:0.00336549;stroke-miterlimit:20;stroke-opacity:1"
           d="m 56.024175,57.593864 0.790129,-0.287564 0.201728,1.783438 z"
           id="path37-1" />
        <path
           style="fill:#ff9000;fill-opacity:1;stroke:none;stroke-width:0.00336549;stroke-miterlimit:20;stroke-opacity:1"
           d="m 57.521624,56.712753 0.475345,-0.892183 1.392377,1.485052 z"
           id="path38-7" />
        <path
           style="fill:#ff9000;fill-opacity:1;stroke:none;stroke-width:0.00336549;stroke-miterlimit:20;stroke-opacity:1"
           d="M 57.521624,53.479631 59.22482,52.98175 57.996969,54.371814 Z"
           id="path39-7" />
        <circle
           style="fill:#ffffff;fill-opacity:1;stroke:none;stroke-width:0.00417835;stroke-miterlimit:20;stroke-opacity:1"
           id="circle32-7"
           cx="55.5625"
           cy="55.096191"
           r="2.54" />
        <circle
           style="fill:#ff9000;fill-opacity:1;stroke:none;stroke-width:0.00313375;stroke-miterlimit:20;stroke-opacity:1"
           id="path32-5"
           cx="55.5625"
           cy="55.096191"
           r="1.905" />
        <path
           style="fill:#ff9000;fill-opacity:1;stroke:none;stroke-width:0.00336549;stroke-miterlimit:20;stroke-opacity:1"
           d="m 55.5625,52.557938 0.2892,-0.372078 0.307468,0.238981 -0.597681,0.766357 -0.650536,-0.836966 0.363302,-0.167146 z"
           id="path42-9" />
      </g>
    </g>
    <text
       xml:space="preserve"
       style="font-style:normal;font-variant:normal;font-weight:normal;font-stretch:normal;font-size:28.2222px;font-family:Arial;-inkscape-font-specification:'Arial, Normal';font-variant-ligatures:normal;font-variant-caps:normal;font-variant-numeric:normal;font-variant-east-asian:normal;writing-mode:lr-tb;direction:ltr;fill:#ff9000;fill-opacity:1;stroke:none;stroke-width:0.0701144;stroke-miterlimit:20;stroke-opacity:1"
       x="222.28918"
       y="28.180141"
       id="text43-9"><tspan
         id="tspan43-8"
         style="font-style:normal;font-variant:normal;font-weight:normal;font-stretch:normal;font-size:28.2222px;font-family:Arial;-inkscape-font-specification:'Arial, Normal';font-variant-ligatures:normal;font-variant-caps:normal;font-variant-numeric:normal;font-variant-east-asian:normal;stroke-width:0.0701144"
         x="222.28918"
         y="28.180141">™</tspan></text>
  </g>
</svg>
