<?xml version="1.0" encoding="UTF-8" standalone="no"?>
<!-- Created with Inkscape (http://www.inkscape.org/) -->

<svg
   width="1000mm"
   height="1000mm"
   viewBox="0 0 1000 1000"
   version="1.1"
   id="svg1"
   sodipodi:docname="the-mayanut-company-logo-tm.svg"
   inkscape:version="1.4.3 (0d15f75, 2025-12-25)"
   inkscape:export-filename="the-mayanut-company-logo-tm.png"
   inkscape:export-xdpi="101.6"
   inkscape:export-ydpi="101.6"
   xmlns:inkscape="http://www.inkscape.org/namespaces/inkscape"
   xmlns:sodipodi="http://sodipodi.sourceforge.net/DTD/sodipodi-0.dtd"
   xmlns="http://www.w3.org/2000/svg"
   xmlns:svg="http://www.w3.org/2000/svg">
  <sodipodi:namedview
     id="namedview1"
     pagecolor="#ffffff"
     bordercolor="#000000"
     borderopacity="0.25"
     inkscape:showpageshadow="2"
     inkscape:pageopacity="0.0"
     inkscape:pagecheckerboard="0"
     inkscape:deskcolor="#d1d1d1"
     inkscape:document-units="mm"
     showguides="false"
     inkscape:zoom="0.60563788"
     inkscape:cx="2630.2846"
     inkscape:cy="629.91436"
     inkscape:window-width="1920"
     inkscape:window-height="1111"
     inkscape:window-x="-9"
     inkscape:window-y="-9"
     inkscape:window-maximized="1"
     inkscape:current-layer="layer1">
    <sodipodi:guide
       position="500,500"
       orientation="1,0"
       id="guide2"
       inkscape:locked="false" />
    <sodipodi:guide
       position="500,500"
       orientation="0,-1"
       id="guide3"
       inkscape:locked="false" />
  </sodipodi:namedview>
  <defs
     id="defs1">
    <rect
       x="2988.2333"
       y="848.52814"
       width="240.41631"
       height="236.17366"
       id="rect61" />
    <rect
       x="2932"
       y="296"
       width="344"
       height="232"
       id="rect57" />
  </defs>
  <g
     inkscape:label="Layer 1"
     inkscape:groupmode="layer"
     id="layer1">
    <path
       style="fill:#ff7000;stroke:none;stroke-width:0.264583;stroke-opacity:1;fill-opacity:1"
       d="M 749.60219,67.398845 500,250.13812 413.31973,8.1346301 308.7315,339.22899 30.764843,328.93458 250.13812,500 30.586361,670.57505 308.45806,660.44513 289.33492,952.84127 500,749.86186 586.77524,991.84862 Z"
       id="path4"
       sodipodi:nodetypes="cccccccccccc" />
    <path
       id="path15"
       style="fill:#ffffff;fill-opacity:1;stroke:none;stroke-width:0.264583;stroke-opacity:1"
       d="m 333.96289,347.19727 c -2.02344,6.40559 -4.04687,12.81119 -6.07031,19.21679 -72.10349,-2.67071 -144.20704,-5.33973 -216.31055,-8.00976 60.54419,47.21169 121.08939,94.42208 181.63281,141.63476 -60.54082,47.0354 -121.08205,94.07029 -181.62304,141.10547 75.06055,-2.73553 150.12104,-5.47269 225.18164,-8.20703 -5.52526,84.47527 -11.0508,168.95052 -16.57617,253.42578 63.63327,-61.31269 127.26907,-122.62277 190.90039,-183.9375 22.30868,62.20435 44.61322,124.41018 66.91992,186.61524 C 622.72135,635.23503 667.42513,381.42904 712.12891,127.62305 637.09898,182.55471 562.06884,237.48609 487.03906,292.41797 462.9915,225.27582 438.94266,158.13413 414.89453,90.992188 387.91732,176.39388 360.9401,261.79557 333.96289,347.19727 Z" />
    <path
       id="path16"
       style="fill:#ff7000;fill-opacity:1;stroke:none;stroke-width:0.264583;stroke-opacity:1"
       d="m 359.19336,355.16602 c -4.04688,12.81119 -8.09375,25.62239 -12.14063,38.43359 -51.5514,-1.90968 -103.10286,-3.81762 -154.65429,-5.72656 47.96414,37.40175 95.92928,74.80223 143.89258,112.20507 -47.89749,37.21263 -95.79559,74.42446 -143.69336,111.63672 57.49674,-2.09499 114.99346,-4.19091 172.49023,-6.28515 -4.6756,71.48504 -9.35158,142.97005 -14.02734,214.45508 57.04479,-54.96498 114.09166,-109.9278 171.13476,-164.89454 15.68974,43.74748 31.3765,87.49603 47.06446,131.24415 35.13216,-199.46224 70.26432,-398.92448 105.39648,-598.38672 -66.8592,48.95076 -133.72051,97.89863 -200.57813,146.85156 -19.20177,-53.61637 -38.40628,-107.23176 -57.60937,-160.84766 -19.0918,60.43815 -38.18359,120.8763 -57.27539,181.31446 z" />
    <path
       style="fill:#ff7000;fill-opacity:1;stroke:none;stroke-width:0.264583;stroke-opacity:1"
       d="M 347.05274,393.59961 336.19082,500 273.71164,417.36012 Z"
       id="path29" />
    <path
       style="fill:#ff7000;fill-opacity:1;stroke:none;stroke-width:0.264583;stroke-opacity:1"
       d="m 336.19082,500 28.89705,105.42968 -91.08918,-23.44959 z"
       id="path30" />
    <path
       id="path50"
       style="fill:#ffffff;fill-opacity:1;stroke:none;stroke-width:0.264583;stroke-opacity:1"
       d="m 489.70898,356.04688 c -9.53059,6.97786 -19.06119,13.95572 -28.59179,20.93359 -14.35766,-40.09088 -28.71735,-80.18103 -43.07617,-120.27149 -17.27672,54.69185 -34.55294,109.38385 -51.82813,164.07618 -30.99867,-1.14862 -61.9974,-2.29557 -92.99609,-3.44336 35.38349,27.59176 70.76752,55.18282 106.15039,82.77539 -35.25454,27.39 -70.50912,54.77995 -105.76367,82.16992 39.93294,-1.4551 79.86585,-2.91093 119.79882,-4.36523 -3.82591,58.4948 -7.65236,116.98958 -11.47851,175.48437 50.45632,-48.61725 100.91417,-97.23291 151.36914,-145.85156 9.07023,25.29081 18.13992,50.58181 27.20898,75.87304 25.56055,-145.11783 51.1211,-290.23567 76.68164,-435.35351 -49.1582,35.99088 -98.3164,71.98177 -147.47461,107.97266 z" />
    <path
       style="fill:#ff7000;fill-opacity:1;stroke:none;stroke-width:0.264583;stroke-opacity:1"
       d="m 365.08787,605.42968 157.10744,49.56054 -140.2715,98.41602 z"
       id="path31" />
    <path
       style="fill:#ff7000;fill-opacity:1;stroke:none;stroke-width:0.264583;stroke-opacity:1"
       d="m 522.19531,654.99022 78.91037,-49.56054 -40.60373,77.99803 z"
       id="path32" />
    <path
       style="fill:#ffffff;fill-opacity:1;stroke:none;stroke-width:0.264583;stroke-opacity:1"
       d="M 363.01558,497.77168 374.79983,393.59961"
       id="path36" />
    <path
       style="fill:#ffffff;fill-opacity:1;stroke:none;stroke-width:0.264583;stroke-opacity:1"
       d="m 347.05274,393.59961 h 291.3635"
       id="path47" />
    <path
       style="fill:#ffffff;fill-opacity:1;stroke:none;stroke-width:0.264583;stroke-opacity:1"
       d="M 365.08787,605.42968 H 601.10565"
       id="path48" />
    <path
       style="fill:#ffffff;fill-opacity:1;stroke:none;stroke-width:0.264583;stroke-opacity:1"
       d="m 347.05274,393.59961 -10.76172,106.47849 28.79685,105.35158 157.10744,49.56054 78.91037,-49.56054 37.31056,-211.83007 z"
       id="path49" />
    <path
       style="fill:#ff7000;fill-opacity:1;stroke:none;stroke-width:0.264583;stroke-opacity:1"
       d="M 347.05274,393.59961 336.29102,500.0781 273.71164,417.36012 Z"
       id="path51" />
    <path
       style="fill:#ff7000;fill-opacity:1;stroke:none;stroke-width:0.264583;stroke-opacity:1"
       d="M 336.29102,500.0781 365.08787,605.42968 273.6035,582.28711 Z"
       id="path52" />
    <path
       id="path53"
       style="fill:#ff7000;fill-opacity:1;stroke:none;stroke-width:0.264583;stroke-opacity:1"
       d="M 374.79986 393.59975 L 370.97064 420.0586 L 363.10962 497.84765 C 371.0087 526.74413 378.90779 555.64044 386.80688 584.53693 C 430.69946 598.38328 474.59205 612.22965 518.48463 626.076 C 538.01848 613.80777 557.55185 601.53976 577.08571 589.27153 L 606.99292 572.00488 L 638.41633 393.59975 L 374.79986 393.59975 z " />
    <path
       id="path54"
       style="fill:#ffffff;fill-opacity:1;stroke:none;stroke-width:0.264583;stroke-opacity:1"
       d="M 606.99292 572.00488 L 592.03931 580.63794 L 592.03931 611.12394 L 601.10543 605.42971 L 631.01213 588.16307 L 633.85847 572.00488 L 606.99292 572.00488 z " />
    <path
       style="fill:#ffffff;fill-opacity:1;stroke:none;stroke-width:0.264583;stroke-opacity:1"
       d="m 347.05274,393.59961 h 27.74709 l -11.69022,104.24803 -26.81859,2.23046 z"
       id="path55" />
    <path
       style="fill:#ff7000;fill-opacity:1;stroke:none;stroke-width:0.264583;stroke-opacity:1"
       d="m 606.99292,572.00487 -88.50831,54.07112 36.61122,-63.96871 z"
       id="path56" />
    <path
       style="fill:#ff7000;fill-opacity:1;stroke:none;stroke-width:0.264583;stroke-opacity:1"
       d="m 614.93992,374.36081 -6.55077,37.19136 26.6727,1.09181 7.063,-40.09988 z"
       id="path57" />
    <text
       xml:space="preserve"
       transform="matrix(0.26458333,0,0,0.26458333,-46.84843,-141.30406)"
       id="text61"
       style="font-style:normal;font-variant:normal;font-weight:normal;font-stretch:normal;font-size:200px;font-family:Arial;-inkscape-font-specification:'Arial, Normal';font-variant-ligatures:normal;font-variant-caps:normal;font-variant-numeric:normal;font-variant-east-asian:normal;writing-mode:lr-tb;direction:ltr;white-space:pre;shape-inside:url(#rect61);display:inline;fill:#ff7000;fill-opacity:1;stroke:none;stroke-opacity:1"><tspan
         x="2988.2344"
         y="1028.6782"
         id="tspan1">™</tspan></text>
    <path
       style="fill:#ff7000;fill-opacity:1;stroke:none;stroke-width:0.264583;stroke-opacity:1"
       d="M 789.85813,124.57545 V 85.261978"
       id="path61" />
    <path
       style="fill:#ff7000;fill-opacity:1;stroke:none;stroke-width:0.264583;stroke-opacity:1"
       d="M 749.60217,103.5173 V 67.398844"
       id="path62" />
    <path
       style="fill:#ff7000;fill-opacity:1;stroke:none;stroke-width:0.264583;stroke-opacity:1"
       d="m 374.79983,393.59961 17.75441,21.29012"
       id="path63" />
    <path
       style="fill:#ff7000;fill-opacity:1;stroke:none;stroke-width:0.264583;stroke-opacity:1"
       d="m 269.01375,413.40449 15.90016,1.48524 -4.23262,11.68294 -18.75817,-6.29242 z"
       id="path65" />
    <path
       style="fill:#000000;fill-opacity:1;stroke:none;stroke-width:0.264583;stroke-opacity:1"
       d="m 674.65624,187.84766 -57.55761,92.98379"
       id="path74" />
    <path
       style="fill:#000000;fill-opacity:1;stroke:none;stroke-width:0.264583;stroke-opacity:1"
       d="m 461.11718,393.59961 150.43404,1.3e-4"
       id="path75" />
    <path
       style="fill:#ff7000;fill-opacity:1;stroke:none;stroke-width:0.264583;stroke-opacity:1"
       d="M 461.11718,393.59961 H 374.79983"
       id="path88" />
    <path
       style="fill:#ff7000;stroke:none;stroke-width:0.264583"
       d="M 385.58948,393.59961 V 580.0835"
       id="path3" />
    <path
       style="fill:#ff7000;stroke:none;stroke-width:0.264583"
       d="M 461.11718,393.59961 H 374.79983"
       id="path9" />
    <path
       style="fill:#ff7000;stroke:none;stroke-width:0.264583"
       d="m 418.04103,256.70898 -0.0826,136.89211"
       id="path11" />
    <path
       style="fill:#ff7000;stroke:none;stroke-width:0.264583"
       d="M 417.99972,325.15503 H 396.41978"
       id="path12" />
    <path
       style="fill:#ff7000;stroke:none;stroke-width:0.264583"
       d="m 461.11718,376.98047 v 16.61927"
       id="path18" />
    <path
       style="fill:#ff7000;stroke:none;stroke-width:0.264583"
       d="M 347.05274,393.59961 H 461.11718"
       id="path19" />
    <path
       style="fill:#ff7000;stroke:none;stroke-width:0.264583"
       d="m 461.11718,376.98047 v 16.61927"
       id="path20" />
    <path
       style="fill:#ff7000;stroke:none;stroke-width:0.264583"
       d="m 461.11718,376.98047 v 16.61914"
       id="path21" />
    <path
       id="path24"
       style="fill:#ffffff;fill-opacity:1;stroke:none;stroke-width:0.264583"
       d="M 327.89265 366.41381 L 347.05272 393.59975 L 336.19085 499.99997 L 365.08779 605.42971 L 522.19552 654.98999 L 518.48566 626.07496 L 386.80688 584.53693 L 363.10962 497.84661 L 374.79986 393.59975 L 383.56367 366.41381 L 327.89265 366.41381 z " />
    <path
       style="fill:#ffffff;fill-opacity:1;stroke:none;stroke-width:0.264583"
       d="m 419.61522,339.57029 -17.06716,54.02945"
       id="path33" />
    <path
       style="fill:#ffffff;fill-opacity:1;stroke:none;stroke-width:0.264583"
       d="m 584.68675,393.59961 57.4381,45.75236"
       id="path34" />
    <path
       style="fill:#ffffff;fill-opacity:1;stroke:none;stroke-width:0.264583"
       d="M 586.89476,537.85593 612.52712,392.33041"
       id="path37" />
    <path
       id="path38"
       style="fill:#ffffff;fill-opacity:1;stroke:none;stroke-width:0.264583"
       d="M 419.61521 339.57049 L 347.05272 393.59975 L 419.61521 339.57049 z M 589.44516 366.58589 L 589.33044 367.23805 L 383.12649 367.23805 L 374.79986 393.59975 L 584.68679 393.59975 L 612.30371 393.59975 L 638.41633 393.59975 L 670.03972 366.58589 L 643.17418 366.58589 L 616.30915 366.58589 L 589.44516 366.58589 z " />
    <path
       style="fill:#ffffff;fill-opacity:1;stroke:none;stroke-width:0.264583"
       d="m 383.33267,366.58592 h 27.74897 l -8.53358,27.01472 h -27.74813 z"
       id="path39" />
    <path
       style="fill:#ffffff;fill-opacity:1;stroke:none;stroke-width:0.264583"
       d="m 383.33267,366.58592 h 27.74897 l -8.53358,27.01472 h -27.74813 z"
       id="path40" />
    <path
       style="fill:#ffffff;fill-opacity:1;stroke:none;stroke-width:0.264583"
       d="m 383.33267,366.58592 h 206.11226 l 53.72937,0"
       id="path42" />
    <path
       style="fill:#ff7000;fill-opacity:1;stroke-width:0.264583"
       d="m 383.33267,366.58592 h 13.87448 l 21.62096,-68.4453 -0.78708,-41.43164 z"
       id="path2" />
    <path
       style="fill:#ff7000;fill-opacity:1;stroke-width:0.264583"
       d="m 457.62812,367.23804 h -14.05295 l -24.74706,-69.09742 -0.78708,-41.43164 z"
       id="path13" />
    <path
       style="fill:#ff7000;fill-opacity:1;stroke-width:0.264583"
       d="m 474.42371,367.23804 h 22.39311 l 121.62848,-89.05055 18.73827,-30.11327 z"
       id="path14" />
    <path
       style="fill:#ff7000;fill-opacity:1;stroke-width:0.264583"
       d="m 443.57517,367.23804 h -88.1952"
       id="path17" />
    <path
       style="fill:#ff7000;stroke-width:0.264583"
       d="m 397.20715,366.58592 -41.82718,0.65212 0.92702,-2.93466 41.2414,1.20288 z"
       id="path5" />
    <path
       style="fill:#ff7000;stroke-width:0.264583"
       d="m 443.57517,367.23804 3.66175,10.22374 38.97519,-2.45947 10.60471,-7.76427 z"
       id="path6" />
    <path
       style="fill:#ff7000;stroke-width:0.264583"
       d="m 618.4453,278.18749 18.73827,-30.11327 -20.87422,118.51167 h -13.43221 z"
       id="path7" />
    <path
       style="fill:#ffffff;stroke-width:0.264583"
       d="m 327.89256,366.41405 315.28173,0.17187 -4.75797,27.01382 H 347.05271 Z"
       id="path8" />
    <path
       style="fill:#ff7000;stroke-width:0.264583;fill-opacity:1"
       d="m 418.82811,298.14062 -21.62096,68.4453 -41.57167,-0.15674 60.83326,-192.57762 57.60937,160.84765 200.57813,-146.85155 -31.48195,178.73826 -40.29329,-0.022 15.5643,-88.37647 -120.62957,88.31919 -54.51313,-0.0297 z"
       id="path10" />
    <rect
       style="fill:none;stroke-width:1.55856;stroke:none;stroke-opacity:1"
       id="rect1"
       width="1000"
       height="1000"
       x="0"
       y="0"
       inkscape:export-filename="rect1.png"
       inkscape:export-xdpi="101.6"
       inkscape:export-ydpi="101.6" />
  </g>
</svg>
